<svg xmlns="http://www.w3.org/2000/svg" version="1.1" xmlns:xlink="http://www.w3.org/1999/xlink" xmlns:svgjs="http://svgjs.dev/svgjs" width="100%" height="100%" viewBox="0 0 1000 600"><rect width="1000" height="600" x="0" y="0" fill="#533549"/><g><rect width="333.3333333333333" height="333.3333333333333" rx="13.333333333333334" ry="13.333333333333334" y="329.38037436846423" fill="#f6b042" transform="matrix(0.4069565168577967,0,0,0.4069565168577965,0,98.13042605261539)" x="307.1581115722656"/><path d="M488.0649401303135 438.1858987108935L488.0649401303135 421.04706169258407L536.7516200017017 421.04706169258407L536.7516200017017 438.1858987108935L525.6634397304144 438.1858987108935L485.081825641084 494.47107775296075L527.4364228702395 554.0207971794679L536.7516200017017 554.0207971794679L536.7516200017017 571.0470638396932L488.0649401303135 571.0470638396932L488.0649401303135 554.0207971794679L506.3576233189854 554.0207971794679L474.3032138545281 509.4147927886296L442.0518062634236 554.0207971794679L459.5564969455065 554.0207971794679L459.5564969455065 571.0470638396932L410.89795966363937 571.0470638396932L410.89795966363937 554.0207971794679L420.69158081695906 554.0207971794679L463.4120317098881 494.3585073948766L423.0555583367259 438.1858987108935L410.89795966363937 438.1858987108935L410.89795966363937 421.04706169258407L459.5564969455065 421.04706169258407L459.5564969455065 438.1858987108935L445.11934852121624 438.1858987108935L474.3032138545281 479.21779423256055L503.79664767257134 438.1858987108935L488.0649401303135 438.1858987108935Z " fill="#533549" transform="matrix(0.4069565168577967,0,0,0.4069565168577965,0,98.13042605261539)"/><path d="M781.9426330051477 436.9224316035464L781.9426330051477 424.0144205133807L818.6107104862424 424.0144205133807L818.6107104862424 436.9224316035464L810.2597148055769 436.9224316035464L779.6959184311615 479.31327262215297L811.595026297663 524.1627824198388L818.6107104862424 524.1627824198388L818.6107104862424 536.9860118279672L781.9426330051477 536.9860118279672L781.9426330051477 524.1627824198388L795.7196563361949 524.1627824198388L771.5780723760984 490.568040912593L747.2881204724368 524.1627824198388L760.4716720292236 524.1627824198388L760.4716720292236 536.9860118279672L723.8247899686381 536.9860118279672L723.8247899686381 524.1627824198388L731.2007963058757 524.1627824198388L763.375444638998 479.22849094011576L732.9812116286571 436.9224316035464L723.8247899686381 436.9224316035464L723.8247899686381 424.0144205133807L760.4716720292236 424.0144205133807L760.4716720292236 436.9224316035464L749.598421307951 436.9224316035464L771.5780723760984 467.8253547061106L793.7908730698482 436.9224316035464L781.9426330051477 436.9224316035464ZM900.4250336521532 536.9860118279672L900.4250336521532 524.1627824198388L909.8146049377744 524.1627824198388L900.8701374828485 498.53751902409107L857.4195254387768 498.53751902409107L848.7082076094531 524.1627824198388L860.3232980485514 524.1627824198388L860.3232980485514 536.9860118279672L823.6764159879659 536.9860118279672L823.6764159879659 524.1627824198388L833.5110911042826 524.1627824198388L868.6742937292167 424.0144205133807L890.6539447973643 424.0144205133807L925.7535611607706 524.1627824198388L937.0719157127385 524.1627824198388L937.0719157127385 536.9860118279672L900.4250336521532 536.9860118279672ZM878.9540726762289 435.65070637298817L861.6798049611467 486.15939344665793L896.5462716989506 486.15939344665793L878.9540726762289 435.65070637298817ZM948.4750519467436 436.9224316035464L948.4750519467436 424.0144205133807L990.5055708166922 424.0144205133807Q998.2630947230971 424.0144205133807 1005.2575834911671 426.0279854617645Q1012.2732676797466 428.0415504101483 1018.2927671043888 431.6871627377485Q1024.3334619495402 435.35397048585793 1029.2507995076985 440.46206682860003Q1034.1681370658569 445.54896775083284 1037.6441860293826 451.8228122215866Q1041.099039572399 458.0754612718311 1042.9642365772177 465.2607088244849Q1044.8294335820365 472.4459563771387 1044.8294335820365 480.2034802835437L1044.8294335820365 480.2034802835437Q1044.8294335820365 488.10937213351383 1042.9642365772177 495.33701052718624Q1041.099039572399 502.5646489208587 1037.6441860293826 508.9020796531404Q1034.1681370658569 515.2183149649127 1029.2507995076985 520.411192989692Q1024.3334619495402 525.5828755939621 1018.2927671043888 529.2708787625809Q1012.2732676797466 532.9588819311996 1005.2575834911671 534.9724468795835Q998.2630947230971 536.9860118279672 990.5055708166922 536.9860118279672L990.5055708166922 536.9860118279672L948.4750519467436 536.9860118279672L948.4750519467436 524.1627824198388L959.2211301449604 524.1627824198388L959.2211301449604 436.9224316035464L948.4750519467436 436.9224316035464ZM991.3957784780828 436.9224316035464L973.8247748758704 436.9224316035464L973.8247748758704 524.1627824198388L991.3957784780828 524.1627824198388Q999.2168886460157 524.1627824198388 1006.1265957320486 520.750319717841Q1013.0151073975721 517.3166615953337 1018.1443991608236 511.38194385272885Q1023.2948863445843 505.46842153063324 1026.283440636396 497.4565525781166Q1029.2507995076985 489.44468362559996 1029.2507995076985 480.2034802835437L1029.2507995076985 480.2034802835437Q1029.2507995076985 471.1106448850526 1026.283440636396 463.2259484555918Q1023.2948863445843 455.32005660562163 1018.1443991608236 449.47012054505393Q1013.0151073975721 443.62018448448623 1006.1265957320486 440.27130804401634Q999.2168886460157 436.9224316035464 991.3957784780828 436.9224316035464L991.3957784780828 436.9224316035464ZM1060.7683898050325 436.9224316035464L1060.7683898050325 424.0144205133807L1141.6925053095524 424.0144205133807L1141.6925053095524 455.99831006191937L1126.431802542854 455.99831006191937L1126.431802542854 436.9224316035464L1086.1181127341592 436.9224316035464L1086.1181127341592 473.0606235719085L1120.0095901285351 473.0606235719085L1120.0095901285351 485.8626575595277L1086.1181127341592 485.8626575595277L1086.1181127341592 524.1627824198388L1126.431802542854 524.1627824198388L1126.431802542854 505.08690396146574L1141.6925053095524 505.08690396146574L1141.6925053095524 536.9860118279672L1060.7683898050325 536.9860118279672L1060.7683898050325 524.1627824198388L1071.5144680032492 524.1627824198388L1071.5144680032492 436.9224316035464L1060.7683898050325 436.9224316035464ZM1216.7454893329955 436.9224316035464L1216.7454893329955 424.0144205133807L1253.3923713935808 424.0144205133807L1253.3923713935808 436.9224316035464L1245.0413757129154 436.9224316035464L1214.4987747590092 479.31327262215297L1246.3978826255106 524.1627824198388L1253.3923713935808 524.1627824198388L1253.3923713935808 536.9860118279672L1216.7454893329955 536.9860118279672L1216.7454893329955 524.1627824198388L1230.5225126640426 524.1627824198388L1206.3809287039462 490.568040912593L1182.0909768002844 524.1627824198388L1195.2745283570712 524.1627824198388L1195.2745283570712 536.9860118279672L1158.6064508759764 536.9860118279672L1158.6064508759764 524.1627824198388L1165.982457213214 524.1627824198388L1198.1783009668457 479.22849094011576L1167.7840679565047 436.9224316035464L1158.6064508759764 436.9224316035464L1158.6064508759764 424.0144205133807L1195.2745283570712 424.0144205133807L1195.2745283570712 436.9224316035464L1184.4012776357986 436.9224316035464L1206.3809287039462 467.8253547061106L1228.5937293976958 436.9224316035464L1216.7454893329955 436.9224316035464ZM1257.7162371774787 536.9860118279672Q1257.7162371774787 536.9860118279672 1257.7162371774787 536.9860118279672ZM1359.645014406718 454.72658483136115Q1359.645014406718 448.15600447347714 1357.271127309676 444.89190971504445Q1354.876044792125 441.6066195361024 1352.014663023369 439.84739963383026Q1349.153281254613 438.1093751520674 1345.7196231321059 437.176776649658Q1342.2859650095988 436.2441781472487 1338.873502307601 436.2441781472487L1338.873502307601 436.2441781472487Q1333.1931296111077 436.2441781472487 1328.954045509247 437.53709879831615Q1324.7149614073865 438.851214869893 1321.9171659001584 441.07673402336985Q1319.1193703929303 443.323448597356 1317.6992772188069 446.29080746865844Q1316.2791840446835 449.27936176047024 1316.2791840446835 452.5646519394122L1316.2791840446835 452.5646519394122Q1316.2791840446835 457.48198949757057 1318.038403946956 460.49173920989165Q1319.797623849228 463.522684342722 1322.4682468334004 465.3454905065221Q1325.1600652380816 467.1682966703222 1328.4029645760052 468.20687227527804Q1331.6458639139285 469.2454478802339 1334.6132227852308 470.30521890569906L1334.6132227852308 470.30521890569906L1349.6619713468363 475.2225564638574Q1356.4445059098134 477.36329393529707 1361.6373839345924 480.1398940220158Q1366.8090665388627 482.89529868822524 1370.3063109228979 486.6468881183719Q1373.8035553069326 490.4196729690279 1375.647556891242 495.33701052718624Q1377.470363055042 500.25434808534465 1377.470363055042 506.74014676119145L1377.470363055042 506.74014676119145Q1377.470363055042 513.7346355292615 1374.5877858657768 519.6905486923757Q1371.726404097021 525.6676572759993 1366.5759169132602 530.0551093214251Q1361.446625150009 534.4425613668509 1354.3249638588832 536.9436209869486Q1347.203302567757 539.4446806070464 1338.7251343640357 539.4446806070464L1338.7251343640357 539.4446806070464Q1329.9926211142028 539.4446806070464 1323.8035583254864 537.4735064996812Q1317.635690957279 535.502332392316 1313.4178022759274 532.1746513723554Q1309.1999135945764 528.868165772904 1306.6776585539692 524.6078862505341Q1304.1342080928528 520.3688021486735 1302.7353103392388 515.8965684212104L1302.7353103392388 515.8965684212104L1297.0549376427457 515.8965684212104L1297.0549376427457 503.073339013082L1315.8340802139883 503.073339013082Q1315.8340802139883 511.3607484322195 1317.5933001162603 514.7732111342174Q1319.3525200185327 518.2068692567245 1322.4682468334004 520.47477925122Q1325.6051690687768 522.7638846662247 1329.929034852675 523.9084373737271Q1334.252900636573 525.0529900812295 1339.4669740818613 525.0529900812295L1339.4669740818613 525.0529900812295Q1344.532679583585 525.0529900812295 1348.581004900862 523.8660465327084Q1352.650525638648 522.6791029841875 1355.5119074074041 520.411192989692Q1358.3944845966694 518.1432829951966 1359.920554873339 514.9003836572732Q1361.446625150009 511.6574843193498 1361.446625150009 507.54557274054497L1361.446625150009 507.54557274054497Q1361.446625150009 503.00975275155406 1359.5390373041716 499.8304396751586Q1357.6526448788436 496.67232201927237 1354.6640905870318 494.4468028657955Q1351.67553629522 492.2000882918094 1348.1359010701663 490.77999511768604Q1344.5962658451128 489.38109736407205 1341.33217108668 488.32132633860687L1341.33217108668 488.32132633860687L1325.0116972945166 483.70072466757875Q1319.6492559056628 482.0686772883624 1315.198217598709 479.525226827246Q1310.7683747122646 477.0029717866389 1307.6102570563785 473.3573594590388Q1304.430943979983 469.6905517109293 1302.7353103392388 464.8156049937895Q1301.0184812779853 459.94065827664974 1301.0184812779853 453.51844586233085L1301.0184812779853 453.51844586233085Q1301.0184812779853 447.0538426069934 1303.5407363185923 441.3734699105001Q1306.0841867797087 435.7142926345161 1311.001524337867 431.4752085326554Q1315.9188618960254 427.21492901028546 1323.0405231871514 424.7986510722249Q1330.140989057768 422.38237313416437 1339.3186061382962 422.38237313416437L1339.3186061382962 422.38237313416437Q1345.3381055629384 422.38237313416437 1350.4462019056805 423.80246630828765Q1355.5542982484226 425.222559482411 1359.687405247737 427.78720536403665Q1363.8205122470508 430.3518512456624 1366.9998253234462 433.9762681527532Q1370.1579429793326 437.5794896393348 1372.3198758712815 441.90335542323265L1372.3198758712815 441.90335542323265L1377.9154668857375 441.90335542323265L1377.9154668857375 454.72658483136115L1359.645014406718 454.72658483136115ZM1387.665360320017 498.38915108052595L1387.665360320017 498.38915108052595Q1387.7501420020544 489.2115339999976 1390.6115237708104 481.68715971919494Q1393.4941009600757 474.1627854383923 1398.623392723327 468.75795320851995Q1403.7738799070876 463.3743163991569 1410.8531503571949 460.449348368873Q1417.9324208073022 457.5455757590985 1426.4105890110236 457.5455757590985L1426.4105890110236 457.5455757590985Q1434.9947343172912 457.5455757590985 1442.1163956084174 460.449348368873Q1449.216861479034 463.3743163991569 1454.2825669807573 468.69436694699203Q1459.3482724824808 474.01441749482717 1462.1884588307273 481.5387917756298Q1465.028645178974 489.06316605643246 1465.028645178974 498.2407831369608L1465.028645178974 498.2407831369608Q1465.028645178974 507.2488368534147 1462.1884588307273 514.815601975236Q1459.3482724824808 522.3823670970572 1454.2825669807573 527.8295901679483Q1449.216861479034 533.2556178183298 1442.1163956084174 536.2865629511602Q1434.9947343172912 539.2963126634813 1426.4105890110236 539.2963126634813L1426.4105890110236 539.2963126634813Q1417.6992711816997 539.2963126634813 1410.6200007315924 536.3077583716695Q1403.5407302814851 533.3403995003671 1398.4750247797617 527.9355672704947Q1393.4093192780383 522.5307350406224 1390.5691329297915 515.0063607598197Q1387.7501420020544 507.48198647901705 1387.665360320017 498.38915108052595ZM1402.3537867329642 498.38915108052595L1402.3537867329642 498.38915108052595Q1402.3537867329642 505.0233176999379 1404.2613745788017 510.3857590887916Q1406.1477670041295 515.7482004776454 1409.4754480240902 519.5209853283013Q1412.7819336235414 523.272574758448 1417.148190248458 525.3285305478504Q1421.493251452865 527.3632909167435 1426.4105890110236 527.3632909167435L1426.4105890110236 527.3632909167435Q1431.5610761947842 527.3632909167435 1435.9909190812286 525.370921388869Q1440.4207619676731 523.3573564404852 1443.706052146615 519.5845715898292Q1446.991342325557 515.8329821596825 1448.8565393303757 510.4493453503195Q1450.7217363351942 505.08690396146574 1450.7217363351942 498.38915108052595L1450.7217363351942 498.38915108052595Q1450.7217363351942 491.3734668919466 1448.8565393303757 485.9474392415649Q1446.991342325557 480.500216170674 1443.7484429876336 476.8546038430738Q1440.5055436497103 473.2089915154736 1436.033309922247 471.3437945106549Q1431.5610761947842 469.47859750583626 1426.4105890110236 469.47859750583626L1426.4105890110236 469.47859750583626Q1421.493251452865 469.47859750583626 1417.148190248458 471.3437945106549Q1412.7819336235414 473.2089915154736 1409.4754480240902 476.8546038430738Q1406.1477670041295 480.500216170674 1404.2613745788017 485.9474392415649Q1402.3537867329642 491.3734668919466 1402.3537867329642 498.38915108052595ZM1479.3991402842817 433.84909562969744L1479.3991402842817 421.04706164207823L1504.4309319057688 421.04706164207823L1504.4309319057688 524.1627824198388L1516.0672177653764 524.1627824198388L1516.0672177653764 536.9860118279672L1479.3991402842817 536.9860118279672L1479.3991402842817 524.1627824198388L1490.5691268926846 524.1627824198388L1490.5691268926846 433.84909562969744L1479.3991402842817 433.84909562969744ZM1576.1138440682325 472.59432432070383L1576.1138440682325 459.7922903330846L1601.0184631666639 459.7922903330846L1601.0184631666639 524.1627824198388L1609.5814130524227 524.1627824198388L1609.5814130524227 536.9860118279672L1587.0718764715425 536.9860118279672L1587.0718764715425 529.8219596958227Q1581.8578030262538 533.8490895925904 1575.7111310785558 536.0958041665765Q1569.5644591308578 538.3213233200534 1562.5699703627877 538.3213233200534L1562.5699703627877 538.3213233200534Q1556.7412297227293 538.3213233200534 1552.0146509491547 536.6468850998184Q1547.28807217558 534.9724468795835 1543.9603911556196 531.4328116545298Q1540.6539055561684 527.8931764294762 1538.8734902333867 522.4459533585851Q1537.0718794900959 517.0199257082036 1537.0718794900959 509.49555142740087L1537.0718794900959 509.49555142740087L1537.0718794900959 472.59432432070383L1526.643732599519 472.59432432070383L1526.643732599519 459.7922903330846L1551.5271562774408 459.7922903330846L1551.5271562774408 507.8423086276752Q1551.5271562774408 516.7231898210732 1555.6390678562457 521.2590098100642Q1559.729784014541 525.8160252195644 1567.402526238909 525.8160252195644L1567.402526238909 525.8160252195644Q1571.9595416484092 525.8160252195644 1576.9828563091141 524.1627824198388Q1582.0061709698189 522.5307350406224 1586.4784046972818 519.6269624308478L1586.4784046972818 519.6269624308478L1586.4784046972818 472.59432432070383L1576.1138440682325 472.59432432070383ZM1652.5657258452898 434.90886665516257L1652.5657258452898 459.7922903330846L1670.6878103807437 459.7922903330846L1670.6878103807437 471.04705862352466L1652.4173579017242 471.04705862352466L1652.2054036966315 515.5998325340802Q1652.2054036966315 520.135652523071 1653.2439793015874 522.9758388713178Q1654.2825549065433 525.8160252195644 1656.5928557420573 526.8969916655388Q1658.9031565775713 527.9779581115133 1661.8069291873458 527.9779581115133L1661.8069291873458 527.9779581115133Q1664.9438514227227 527.9779581115133 1667.3389339402738 527.4056817577622Q1669.712821037316 526.8546008245203 1672.5530073855625 525.5192893324341L1672.5530073855625 525.5192893324341L1675.7535158824676 534.8240789360183Q1672.171489816395 536.689275940837 1668.2291416016647 537.7702423868114Q1664.265597966425 538.8512088327859 1658.9031565775713 538.8512088327859L1658.9031565775713 538.8512088327859Q1653.8374510758476 538.8512088327859 1650.0858616457012 537.6218744432463Q1646.3130767950452 536.3925400537067 1643.7484309134193 533.4887674439321Q1641.1837850317938 530.5849948341577 1639.9120598012355 525.6888526965085Q1638.6403345706772 520.8139059793689 1638.6403345706772 513.5226813241685L1638.6403345706772 513.5226813241685L1638.8734841962796 471.04705862352466L1626.5589448803744 471.04705862352466L1626.5589448803744 459.7922903330846L1639.0218521398447 459.7922903330846L1639.0218521398447 441.3098836489722L1652.5657258452898 434.90886665516257ZM1686.414812398647 472.59432432070383L1686.414812398647 459.7922903330846L1711.5949719636992 459.7922903330846L1711.5949719636992 524.1627824198388L1723.2100624027976 524.1627824198388L1723.2100624027976 536.9860118279672L1686.563180342212 536.9860118279672L1686.563180342212 524.1627824198388L1697.5847990070497 524.1627824198388L1697.5847990070497 472.59432432070383L1686.414812398647 472.59432432070383ZM1694.9777622844056 432.4501978760834L1694.9777622844056 432.4501978760834Q1694.9777622844056 430.5002191892275 1695.7619928432496 428.76219470746463Q1696.5462234020938 427.0029748051925 1697.8391440531614 425.68885873361563Q1699.1532601247382 424.3959380825481 1700.9336754475198 423.6117075237039Q1702.714090770301 422.82747696485967 1704.7276557186851 422.82747696485967L1704.7276557186851 422.82747696485967Q1706.677634405541 422.82747696485967 1708.4156588873038 423.6117075237039Q1710.1748787895758 424.3959380825481 1711.4889948611526 425.68885873361563Q1712.7819155122202 427.0029748051925 1713.5661460710644 428.76219470746463Q1714.3503766299086 430.5002191892275 1714.3503766299086 432.4501978760834L1714.3503766299086 432.4501978760834Q1714.3503766299086 434.4425674039579 1713.5661460710644 436.2441781472487Q1712.7819155122202 438.02459347003014 1711.4889948611526 439.40229580313485Q1710.1748787895758 440.77999813623956 1708.4156588873038 441.5642286950838Q1706.677634405541 442.348459253928 1704.7276557186851 442.348459253928L1704.7276557186851 442.348459253928Q1702.714090770301 442.348459253928 1700.9336754475198 441.5642286950838Q1699.1532601247382 440.77999813623956 1697.8391440531614 439.40229580313485Q1696.5462234020938 438.02459347003014 1695.7619928432496 436.2441781472487Q1694.9777622844056 434.4425674039579 1694.9777622844056 432.4501978760834ZM1734.9099345239329 498.38915108052595L1734.9099345239329 498.38915108052595Q1734.99471620597 489.2115339999976 1737.8560979747258 481.68715971919494Q1740.7174797434818 474.1627854383923 1745.8679669272428 468.75795320851995Q1751.0184541110034 463.3743163991569 1758.0977245611107 460.449348368873Q1765.176995011218 457.5455757590985 1773.6551632149394 457.5455757590985L1773.6551632149394 457.5455757590985Q1782.239308521207 457.5455757590985 1789.3397743918235 460.449348368873Q1796.4614356829497 463.3743163991569 1801.5271411846734 468.69436694699203Q1806.5928466863966 474.01441749482717 1809.4330330346434 481.5387917756298Q1812.2520239623805 489.06316605643246 1812.2520239623805 498.2407831369608L1812.2520239623805 498.2407831369608Q1812.2520239623805 507.2488368534147 1809.4330330346434 514.815601975236Q1806.5928466863966 522.3823670970572 1801.5271411846734 527.8295901679483Q1796.4614356829497 533.2556178183298 1789.3397743918235 536.2865629511602Q1782.239308521207 539.2963126634813 1773.6551632149394 539.2963126634813L1773.6551632149394 539.2963126634813Q1764.9438453856155 539.2963126634813 1757.8645749355082 536.3077583716695Q1750.785304485401 533.3403995003671 1745.7195989836778 527.9355672704947Q1740.6538934819541 522.5307350406224 1737.8137071337073 515.0063607598197Q1734.99471620597 507.48198647901705 1734.9099345239329 498.38915108052595ZM1749.59836093688 498.38915108052595L1749.59836093688 498.38915108052595Q1749.59836093688 505.0233176999379 1751.4847533622078 510.3857590887916Q1753.3923412080453 515.7482004776454 1756.6988268074965 519.5209853283013Q1760.0265078274574 523.272574758448 1764.3927644523737 525.3285305478504Q1768.7378256567808 527.3632909167435 1773.6551632149394 527.3632909167435L1773.6551632149394 527.3632909167435Q1778.8056503987 527.3632909167435 1783.2354932851445 525.370921388869Q1787.6653361715885 523.3573564404852 1790.950626350531 519.5845715898292Q1794.235916529473 515.8329821596825 1796.1011135342915 510.4493453503195Q1797.9451151186008 505.08690396146574 1797.9451151186008 498.38915108052595L1797.9451151186008 498.38915108052595Q1797.9451151186008 491.3734668919466 1796.1011135342915 485.9474392415649Q1794.235916529473 480.500216170674 1790.9930171915494 476.8546038430738Q1787.7501178536259 473.2089915154736 1783.277884126163 471.3437945106549Q1778.8056503987 469.47859750583626 1773.6551632149394 469.47859750583626L1773.6551632149394 469.47859750583626Q1768.7378256567808 469.47859750583626 1764.3927644523737 471.3437945106549Q1760.0265078274574 473.2089915154736 1756.6988268074965 476.8546038430738Q1753.3923412080453 480.500216170674 1751.4847533622078 485.9474392415649Q1749.59836093688 491.3734668919466 1749.59836093688 498.38915108052595ZM1878.063804643767 536.9860118279672L1878.063804643767 524.1627824198388L1888.9370553650397 524.1627824198388L1888.9370553650397 488.91479811286735Q1888.9370553650397 480.05511233997856 1884.4224307965583 475.4769015099691Q1879.9290016485857 470.89869067995954 1871.4932242858836 470.89869067995954L1871.4932242858836 470.89869067995954Q1866.660668409762 470.89869067995954 1861.7433308516038 473.2089915154736Q1856.8259932934452 475.51929235098766 1852.4173458275104 478.9317550529855L1852.4173458275104 478.9317550529855L1852.4173458275104 524.1627824198388L1863.3117919692922 524.1627824198388L1863.3117919692922 536.9860118279672L1827.2371862624582 536.9860118279672L1827.2371862624582 524.1627824198388L1837.9620690401653 524.1627824198388L1837.9620690401653 472.59432432070383L1827.2371862624582 472.59432432070383L1827.2371862624582 459.7922903330846L1851.8238740532497 459.7922903330846L1851.8238740532497 468.8851257315757L1851.9722419968148 468.8851257315757Q1854.430910775894 466.7231928396268 1857.2287062831224 464.7732141527709Q1860.0265017903503 462.84443088642433 1863.0786423436898 461.424337712301Q1866.1307828970293 460.00424453817766 1869.4584639169902 459.19881855882414Q1872.7649495164414 458.3721971589613 1876.4105618440417 458.3721971589613L1876.4105618440417 458.3721971589613Q1882.5996246327582 458.3721971589613 1887.6017438729536 460.08902622021486Q1892.58266769264 461.80585528146844 1896.079912076675 465.3030996655035Q1899.5983518812195 468.8003440495385 1901.4847443065473 474.28995796144807Q1903.3923321523848 479.7583764528483 1903.3923321523848 487.2191644721231L1903.3923321523848 487.2191644721231L1903.3923321523848 524.1627824198388L1914.117214930092 524.1627824198388L1914.117214930092 536.9860118279672L1878.063804643767 536.9860118279672ZM1928.4241237738715 472.59432432070383L1928.4241237738715 459.7922903330846L1953.6254787594335 459.7922903330846L1953.6254787594335 524.1627824198388L1965.2405691985318 524.1627824198388L1965.2405691985318 536.9860118279672L1928.572491717437 536.9860118279672L1928.572491717437 524.1627824198388L1939.615305802784 524.1627824198388L1939.615305802784 472.59432432070383L1928.4241237738715 472.59432432070383ZM1937.0082690801396 432.4501978760834L1937.0082690801396 432.4501978760834Q1937.0082690801396 430.5002191892275 1937.7713042184746 428.76219470746463Q1938.5555347773188 427.0029748051925 1939.8696508488956 425.68885873361563Q1941.1625714999632 424.3959380825481 1942.964182243254 423.6117075237039Q1944.7445975660353 422.82747696485967 1946.7581625144194 422.82747696485967L1946.7581625144194 422.82747696485967Q1948.7081412012749 422.82747696485967 1950.446165683038 423.6117075237039Q1952.20538558531 424.3959380825481 1953.4983062363776 425.68885873361563Q1954.8124223079544 427.0029748051925 1955.5966528667986 428.76219470746463Q1956.3808834256429 430.5002191892275 1956.3808834256429 432.4501978760834L1956.3808834256429 432.4501978760834Q1956.3808834256429 434.4425674039579 1955.5966528667986 436.2441781472487Q1954.8124223079544 438.02459347003014 1953.4983062363776 439.40229580313485Q1952.20538558531 440.77999813623956 1950.446165683038 441.5642286950838Q1948.7081412012749 442.348459253928 1946.7581625144194 442.348459253928L1946.7581625144194 442.348459253928Q1944.7445975660353 442.348459253928 1942.964182243254 441.5642286950838Q1941.1625714999632 440.77999813623956 1939.8696508488956 439.40229580313485Q1938.5555347773188 438.02459347003014 1937.7713042184746 436.2441781472487Q1937.0082690801396 434.4425674039579 1937.0082690801396 432.4501978760834ZM2028.8056353059324 536.9860118279672L2028.8056353059324 524.1627824198388L2039.678886027205 524.1627824198388L2039.678886027205 488.91479811286735Q2039.678886027205 480.05511233997856 2035.164261458723 475.4769015099691Q2030.670832310751 470.89869067995954 2022.2350549480484 470.89869067995954L2022.2350549480484 470.89869067995954Q2017.4024990719272 470.89869067995954 2012.4851615137686 473.2089915154736Q2007.56782395561 475.51929235098766 2003.1591764896752 478.9317550529855L2003.1591764896752 478.9317550529855L2003.1591764896752 524.1627824198388L2014.053622631457 524.1627824198388L2014.053622631457 536.9860118279672L1977.979016924623 536.9860118279672L1977.979016924623 524.1627824198388L1988.7038997023305 524.1627824198388L1988.7038997023305 472.59432432070383L1977.979016924623 472.59432432070383L1977.979016924623 459.7922903330846L2002.565704715415 459.7922903330846L2002.565704715415 468.8851257315757L2002.71407265898 468.8851257315757Q2005.172741438059 466.7231928396268 2007.9705369452872 464.7732141527709Q2010.768332452515 462.84443088642433 2013.8204730058546 461.424337712301Q2016.8726135591942 460.00424453817766 2020.200294579155 459.19881855882414Q2023.5067801786063 458.3721971589613 2027.1523925062065 458.3721971589613L2027.1523925062065 458.3721971589613Q2033.341455294923 458.3721971589613 2038.3435745351185 460.08902622021486Q2043.3244983548052 461.80585528146844 2046.8429381593492 465.3030996655035Q2050.3401825433843 468.8003440495385 2052.2265749687126 474.28995796144807Q2054.1341628145497 479.7583764528483 2054.1341628145497 487.2191644721231L2054.1341628145497 487.2191644721231L2054.1341628145497 524.1627824198388L2064.859045592257 524.1627824198388L2064.859045592257 536.9860118279672L2028.8056353059324 536.9860118279672ZM2136.2452218675908 531.3268345519832L2136.2452218675908 530.2034772649902Q2132.4512415964255 534.2306071617578 2127.4279269357203 536.4561263152347Q2122.3834168545063 538.7028408892209 2115.9823998606967 538.7028408892209L2115.9823998606967 538.7028408892209Q2108.1612896927636 538.7028408892209 2101.4211459708054 535.9898270640299Q2094.6810022488467 533.2556178183298 2089.72127384967 527.9991535320227Q2084.761545450493 522.7638846662247 2081.9637499432647 515.1123378623663Q2079.165954436037 507.48198647901705 2079.165954436037 497.6473113627003L2079.165954436037 497.6473113627003Q2079.165954436037 488.7028439077743 2081.8577728407186 481.3692284115554Q2084.5283958248906 474.01441749482717 2089.4669288035584 468.84273489055715Q2094.3842663617165 463.67105228628714 2101.3151688682588 460.7884750970219Q2108.2248759542917 457.927093328266 2116.724239578522 457.927093328266L2116.724239578522 457.927093328266Q2122.5317847980714 457.927093328266 2127.1947773101183 459.22001397933343Q2131.8577698221648 460.5341300509103 2136.2452218675908 463.73463854781505L2136.2452218675908 463.73463854781505L2136.2452218675908 459.7922903330846L2150.1070268806748 459.7922903330846L2150.1070268806748 533.9338712746276Q2150.1070268806748 552.267910015175 2141.43809989237 561.6574813007962Q2132.7479774835556 571.0470525864176 2114.413938743008 571.0470525864176L2114.413938743008 571.0470525864176Q2110.3868088462405 571.0470525864176 2105.999356800815 570.4535808121572Q2101.611904755389 569.8389136173873 2097.3092343920002 568.5459929663199Q2093.0277594491213 567.231876894743 2088.9794341318443 565.2183119463591Q2084.909913394058 563.2259424184847 2081.476255271551 560.3009743882009L2081.476255271551 560.3009743882009L2088.9370432908254 549.0674015182701Q2091.1625624443027 550.9961847846167 2094.045139633568 552.628232163833Q2096.9065214023235 554.2814749635587 2100.191811581266 555.4260276710611Q2103.4559063396982 556.5917757990728 2106.9743461442426 557.2488338348612Q2110.471590528278 557.9270872911588 2113.968834912313 557.9270872911588L2113.968834912313 557.9270872911588Q2119.712793870334 557.9270872911588 2123.909487131176 556.7401437426379Q2128.1273758125276 555.5320047736076 2130.840389637718 552.5222550612865Q2133.5745988834183 549.5125053489655 2134.9099103755048 544.3620181652047Q2136.2452218675908 539.2115309814441 2136.2452218675908 531.3268345519832L2136.2452218675908 531.3268345519832ZM2117.7628151834783 526.6214511989178L2117.7628151834783 526.6214511989178Q2121.1964733059854 526.6214511989178 2124.0366596542317 525.9643931631294Q2126.8556505819693 525.2861397068318 2129.1659514174835 524.2051732608574Q2131.4762522529973 523.1242068148829 2133.2354721552697 521.7041136407595Q2134.9946920575417 520.2840204666362 2136.2452218675908 518.7367547694571L2136.2452218675908 518.7367547694571L2136.2452218675908 476.47308627390635Q2132.4512415964255 473.1242098334364 2127.4915131972484 471.6405303977852Q2122.5317847980714 470.13565554162466 2117.3177113527827 470.13565554162466L2117.3177113527827 470.13565554162466Q2112.4003737946246 470.13565554162466 2108.0765080107267 471.979657125934Q2103.773837647338 473.80246328973413 2100.5309383094145 477.29970767376915Q2097.288038971491 480.7969520578042 2095.4228419666724 485.8626575595277Q2093.557644961854 490.92836306125116 2093.557644961854 497.49894341913523L2093.557644961854 497.49894341913523Q2093.557644961854 504.64180013077043 2095.338060284635 510.08902320166135Q2097.139671027926 515.515050852043 2100.3401795248305 519.2242494411711Q2103.5406880217356 522.9122526097899 2108.0129217491985 524.7562541940993Q2112.4851554766615 526.6214511989178 2117.7628151834783 526.6214511989178Z " fill="#f6b042" transform="matrix(0.4069565168577967,0,0,0.4069565168577965,0,98.13042605261539)"/></g></svg>